<svg id="Calque_1" data-name="Calque 1" xmlns="http://www.w3.org/2000/svg" xmlns:xlink="http://www.w3.org/1999/xlink" viewBox="0 0 137.31 137.31"><defs><style>.cls-1{fill:#5059a4;}.cls-2{fill:url(#Dégradé_sans_nom_29);}</style><linearGradient id="Dégradé_sans_nom_29" x1="20.64" y1="67.37" x2="68.14" y2="83.61" gradientUnits="userSpaceOnUse"><stop offset="0" stop-color="#5059a4"/><stop offset="0.13" stop-color="#4c559c"/><stop offset="0.69" stop-color="#3d447a"/><stop offset="1" stop-color="#373e6d"/></linearGradient></defs><title>terraform-validator-icon</title><path class="cls-1" d="M109.78,13.68A68.35,68.35,0,0,0,94.6,5.08L91.07,16.56,68.34,86.07,54,50.58H36.16L60.21,109.1H77l28.65-83.42a56.81,56.81,0,1,1-31.3-13.44L76.83.48,77,.5l-.17,0h0A71.12,71.12,0,0,0,68.66,0a68.65,68.65,0,1,0,41.12,13.68Z"/><polygon class="cls-2" points="68.34 86.07 60.21 109.1 36.16 50.58 54.03 50.58 68.34 86.07"/></svg>