<?xml version="1.0" encoding="utf-8"?>
<!-- Generator: Adobe Illustrator 23.0.3, SVG Export Plug-In . SVG Version: 6.00 Build 0)  -->
<svg version="1.1"
	 id="svg2" inkscape:version="0.91 r13725" sodipodi:docname="17.svg" xmlns:cc="http://creativecommons.org/ns#" xmlns:dc="http://purl.org/dc/elements/1.1/" xmlns:inkscape="http://www.inkscape.org/namespaces/inkscape" xmlns:rdf="http://www.w3.org/1999/02/22-rdf-syntax-ns#" xmlns:sodipodi="http://sodipodi.sourceforge.net/DTD/sodipodi-0.dtd" xmlns:svg="http://www.w3.org/2000/svg"
	 xmlns="http://www.w3.org/2000/svg" xmlns:xlink="http://www.w3.org/1999/xlink" x="0px" y="0px" viewBox="0 0 32 32"
	 style="enable-background:new 0 0 32 32;" xml:space="preserve">
<style type="text/css">
	.st0{fill:#5059A4;}
</style>
<sodipodi:namedview  bordercolor="#666666" borderopacity="1.0" id="base" inkscape:bbox-nodes="true" inkscape:bbox-paths="true" inkscape:current-layer="layer1" inkscape:cx="71.249743" inkscape:cy="-19.081408" inkscape:document-units="px" inkscape:pageopacity="0.0" inkscape:pageshadow="2" inkscape:snap-bbox="true" inkscape:snap-bbox-edge-midpoints="true" inkscape:snap-bbox-midpoints="true" inkscape:window-height="715" inkscape:window-maximized="1" inkscape:window-width="1366" inkscape:window-x="-8" inkscape:window-y="-8" inkscape:zoom="3.959798" pagecolor="#ffffff" showgrid="true" units="px">
	<inkscape:grid  id="grid3366" type="xygrid"></inkscape:grid>
</sodipodi:namedview>
<g id="layer1" transform="translate(0,-1020.3622)" inkscape:groupmode="layer" inkscape:label="Layer 1">
	<path id="path4382" class="st0" d="M25.4,1027.4L25.4,1027.4v1c0.3,0,0.9,0,1.2,0.1c0.2,0,0.3,0.1,0.4,0.2c0.1,0.1,0.1,0.1,0.1,0.2
		v5c0,0.3,0.2,0.6,0.3,0.8c0.2,0.2,0.3,0.4,0.5,0.6c0.2,0.2,0.4,0.4,0.5,0.5c0,0,0,0,0,0c-0.1,0.1-0.3,0.3-0.5,0.5
		c-0.4,0.4-0.9,0.9-0.9,1.6v5c0,0.1,0,0.2-0.1,0.2c-0.1,0.1-0.2,0.1-0.4,0.2c-0.4,0.1-0.9,0.1-1.1,0.1v1c0.1,0,0.7,0,1.3-0.1
		c0.3-0.1,0.6-0.2,0.9-0.4c0.3-0.2,0.5-0.6,0.5-1v-5c0-0.2,0.2-0.5,0.6-0.9c0.2-0.2,0.3-0.3,0.5-0.5c0.1-0.1,0.1-0.2,0.2-0.3
		c0.1-0.1,0.2-0.2,0.2-0.4c0-0.2-0.1-0.3-0.1-0.4c-0.1-0.1-0.1-0.2-0.2-0.3c-0.1-0.2-0.3-0.4-0.5-0.5c-0.2-0.2-0.3-0.4-0.4-0.5
		c-0.1-0.2-0.1-0.3-0.1-0.2v-5c0-0.4-0.2-0.7-0.4-1s-0.5-0.3-0.8-0.4C26.3,1027.3,25.7,1027.4,25.4,1027.4z M7.5,1027.4
		c-0.3,0-0.9,0-1.5,0.1c-0.3,0.1-0.6,0.2-0.8,0.4s-0.4,0.6-0.4,1v5c0,0,0,0.1-0.1,0.2c-0.1,0.2-0.3,0.3-0.4,0.5
		c-0.2,0.2-0.3,0.4-0.5,0.5c-0.1,0.1-0.1,0.2-0.2,0.3c-0.1,0.1-0.1,0.2-0.1,0.4c0,0.2,0.1,0.3,0.2,0.4c0.1,0.1,0.1,0.2,0.2,0.3
		c0.2,0.2,0.3,0.3,0.5,0.5c0.3,0.3,0.6,0.7,0.6,0.9v5c0,0.4,0.2,0.8,0.5,1c0.3,0.2,0.6,0.3,0.9,0.4c0.6,0.1,1.2,0.1,1.3,0.1v-1
		c-0.2,0-0.7,0-1.1-0.1c-0.2,0-0.4-0.1-0.4-0.2c-0.1-0.1-0.1-0.1-0.1-0.2v-5c0-0.7-0.5-1.2-0.9-1.6c-0.2-0.2-0.4-0.4-0.5-0.5
		c0,0,0,0,0,0c0.1-0.1,0.3-0.3,0.5-0.5s0.4-0.4,0.5-0.6c0.2-0.2,0.3-0.5,0.3-0.8v-5c0-0.1,0-0.2,0.1-0.2c0.1-0.1,0.2-0.1,0.4-0.2
		c0.4-0.1,0.9-0.1,1.2-0.1V1027.4z M19.8,1027.4c-0.3,0.1-0.6,0.2-0.9,0.5l-1.5,2.1l0,0l-7.2,10l-0.9,5.6l5-2.6l7.2-10h0l0.3-0.4
		l1.2-1.7c0.4-0.6,0.3-1.4-0.3-1.8l-2-1.4C20.5,1027.4,20.2,1027.3,19.8,1027.4z M20,1028.4c0.1,0,0.2,0,0.2,0.1l2,1.4
		c0.1,0.1,0.2,0.3,0.1,0.4l-1.2,1.7l-2.5-1.8l1.2-1.7C19.8,1028.4,19.9,1028.4,20,1028.4z M18,1031l2.5,1.8l-6.3,8.8l-2.5-1.8
		L18,1031z M11.2,1040.6l2.3,1.7l-2.8,1.5L11.2,1040.6z"/>
</g>
</svg>
