<?xml version="1.0" encoding="utf-8"?>
<!-- Generator: Adobe Illustrator 23.0.3, SVG Export Plug-In . SVG Version: 6.00 Build 0)  -->
<svg version="1.1" id="Calque_1" xmlns="http://www.w3.org/2000/svg" xmlns:xlink="http://www.w3.org/1999/xlink" x="0px" y="0px"
	 viewBox="0 0 512 512" style="enable-background:new 0 0 512 512;" xml:space="preserve">
<style type="text/css">
	.st0{fill:#5059A4;}
</style>
<path class="st0" d="M385.5,365.2c-36.8,0-66.1-11.1-89.7-33.9c-20.5-19.8-34.2-46-47.4-71.3c-25.7-49.2-50.1-95.6-121.1-95.6
	c-50.4,0-91.5,41-91.5,91.5c0,50.4,41,91.4,91.5,91.4c16,0,31.8-4.2,45.7-12.2c4.3-2.5,9.8-1,12.3,3.3s1,9.8-3.3,12.3
	c-16.7,9.6-35.6,14.6-54.7,14.6c-60.4,0-109.5-49.1-109.5-109.4c0-60.4,49.1-109.5,109.5-109.5c36.8,0,66.1,11.1,89.6,33.9
	c20.5,19.8,34.2,46,47.4,71.3c25.8,49.2,50.1,95.6,121.2,95.6c50.4,0,91.4-41,91.4-91.4c0-50.4-41-91.5-91.4-91.5
	c-16,0-31.8,4.2-45.7,12.3c-4.3,2.5-9.8,1-12.3-3.3c-2.5-4.3-1-9.8,3.3-12.3c16.6-9.6,35.5-14.7,54.7-14.7
	c60.3,0,109.4,49.1,109.4,109.5C494.9,316.1,445.8,365.2,385.5,365.2z"/>
</svg>
