<?xml version="1.0" encoding="utf-8"?>
<!-- Generator: Adobe Illustrator 23.0.3, SVG Export Plug-In . SVG Version: 6.00 Build 0)  -->
<svg version="1.1" id="Calque_1" xmlns="http://www.w3.org/2000/svg" xmlns:xlink="http://www.w3.org/1999/xlink" x="0px" y="0px"
	 viewBox="0 0 50 50" style="enable-background:new 0 0 50 50;" xml:space="preserve">
<style type="text/css">
	.st0{fill:#5059A4;}
</style>
<g id="Layer_1">
	<path class="st0" d="M1,8.3V9c0,15.8,8.4,30.7,21.8,38.9l2.2,1.3l2.2-1.3C40.6,39.7,49,24.8,49,9V8.3L25,1L1,8.3z M26.1,46.1
		L25,46.8l-1.1-0.7C11.2,38.4,3.3,24.5,3,9.7L25,3l22,6.7C46.7,24.5,38.8,38.4,26.1,46.1z"/>
	<path class="st0" d="M15.7,25.3l-1.4,1.4l7.7,7.7l19.7-19.7l-1.4-1.4L22,31.6L15.7,25.3z"/>
</g>
</svg>
